<svg width="550" height="400" viewBox="0 0 550 400" fill="none" xmlns="http://www.w3.org/2000/svg">
  <rect width="550" height="400" rx="8" fill="#F8FAFC"/>
  <rect x="50" y="50" width="450" height="300" rx="4" fill="white" stroke="#E2E8F0" stroke-width="2"/>
  <rect x="50" y="50" width="450" height="60" rx="4" fill="#F1F5F9" stroke="#E2E8F0" stroke-width="2"/>
  <text x="80" y="85" font-family="sans-serif" font-size="20" font-weight="bold" fill="#334155">April 2023</text>
  <line x1="50" y1="110" x2="500" y2="110" stroke="#E2E8F0" stroke-width="2"/>
  
  <!-- Days of week -->
  <text x="80" y="135" font-family="sans-serif" font-size="14" fill="#64748B">Sun</text>
  <text x="145" y="135" font-family="sans-serif" font-size="14" fill="#64748B">Mon</text>
  <text x="210" y="135" font-family="sans-serif" font-size="14" fill="#64748B">Tue</text>
  <text x="275" y="135" font-family="sans-serif" font-size="14" fill="#64748B">Wed</text>
  <text x="340" y="135" font-family="sans-serif" font-size="14" fill="#64748B">Thu</text>
  <text x="405" y="135" font-family="sans-serif" font-size="14" fill="#64748B">Fri</text>
  <text x="470" y="135" font-family="sans-serif" font-size="14" fill="#64748B">Sat</text>
  
  <!-- Calendar grid -->
  <line x1="115" y1="110" x2="115" y2="350" stroke="#E2E8F0" stroke-width="1"/>
  <line x1="180" y1="110" x2="180" y2="350" stroke="#E2E8F0" stroke-width="1"/>
  <line x1="245" y1="110" x2="245" y2="350" stroke="#E2E8F0" stroke-width="1"/>
  <line x1="310" y1="110" x2="310" y2="350" stroke="#E2E8F0" stroke-width="1"/>
  <line x1="375" y1="110" x2="375" y2="350" stroke="#E2E8F0" stroke-width="1"/>
  <line x1="440" y1="110" x2="440" y2="350" stroke="#E2E8F0" stroke-width="1"/>
  
  <line x1="50" y1="150" x2="500" y2="150" stroke="#E2E8F0" stroke-width="1"/>
  <line x1="50" y1="200" x2="500" y2="200" stroke="#E2E8F0" stroke-width="1"/>
  <line x1="50" y1="250" x2="500" y2="250" stroke="#E2E8F0" stroke-width="1"/>
  <line x1="50" y1="300" x2="500" y2="300" stroke="#E2E8F0" stroke-width="1"/>
  
  <!-- Calendar days -->
  <text x="80" y="175" font-family="sans-serif" font-size="16" fill="#94A3B8">26</text>
  <text x="145" y="175" font-family="sans-serif" font-size="16" fill="#94A3B8">27</text>
  <text x="210" y="175" font-family="sans-serif" font-size="16" fill="#94A3B8">28</text>
  <text x="275" y="175" font-family="sans-serif" font-size="16" fill="#94A3B8">29</text>
  <text x="340" y="175" font-family="sans-serif" font-size="16" fill="#94A3B8">30</text>
  <text x="405" y="175" font-family="sans-serif" font-size="16" fill="#94A3B8">31</text>
  <text x="470" y="175" font-family="sans-serif" font-size="16" fill="#0F172A">1</text>
  
  <text x="80" y="225" font-family="sans-serif" font-size="16" fill="#0F172A">2</text>
  <text x="145" y="225" font-family="sans-serif" font-size="16" fill="#0F172A">3</text>
  <text x="210" y="225" font-family="sans-serif" font-size="16" fill="#0F172A">4</text>
  <text x="275" y="225" font-family="sans-serif" font-size="16" fill="#0F172A">5</text>
  <text x="340" y="225" font-family="sans-serif" font-size="16" fill="#0F172A">6</text>
  <text x="405" y="225" font-family="sans-serif" font-size="16" fill="#0F172A">7</text>
  <text x="470" y="225" font-family="sans-serif" font-size="16" fill="#0F172A">8</text>
  
  <text x="80" y="275" font-family="sans-serif" font-size="16" fill="#0F172A">9</text>
  <text x="145" y="275" font-family="sans-serif" font-size="16" fill="#0F172A">10</text>
  <text x="210" y="275" font-family="sans-serif" font-size="16" fill="#0F172A">11</text>
  <text x="275" y="275" font-family="sans-serif" font-size="16" fill="#0F172A">12</text>
  <rect x="310" y="250" width="65" height="50" fill="#EFF6FF"/>
  <text x="340" y="275" font-family="sans-serif" font-size="16" fill="#2563EB" font-weight="bold">13</text>
  <text x="405" y="275" font-family="sans-serif" font-size="16" fill="#0F172A">14</text>
  <text x="470" y="275" font-family="sans-serif" font-size="16" fill="#0F172A">15</text>
  
  <text x="80" y="325" font-family="sans-serif" font-size="16" fill="#0F172A">16</text>
  <text x="145" y="325" font-family="sans-serif" font-size="16" fill="#0F172A">17</text>
  <text x="210" y="325" font-family="sans-serif" font-size="16" fill="#0F172A">18</text>
  <text x="275" y="325" font-family="sans-serif" font-size="16" fill="#0F172A">19</text>
  <text x="340" y="325" font-family="sans-serif" font-size="16" fill="#0F172A">20</text>
  <rect x="375" y="300" width="65" height="50" fill="#ECFDF5"/>
  <text x="405" y="325" font-family="sans-serif" font-size="16" fill="#059669" font-weight="bold">21</text>
  <text x="470" y="325" font-family="sans-serif" font-size="16" fill="#0F172A">22</text>
  
  <!-- Event indicators -->
  <rect x="330" y="280" width="25" height="4" rx="2" fill="#2563EB"/>
  <rect x="395" y="330" width="25" height="4" rx="2" fill="#059669"/>
</svg>